<svg xmlns="http://www.w3.org/2000/svg" width="625" height="384" viewBox="0 0 625 384" font-family="ui-monospace, SFMono-Regular, Menlo, Consolas, 'Liberation Mono', monospace" font-size="13">
<rect width="625" height="384" rx="10" fill="#0d1117"/>
<path d="M0 10 a10 10 0 0 1 10 -10 h605 a10 10 0 0 1 10 10 v26 h-625 z" fill="#161b22"/>
<circle cx="20" cy="18" r="5.5" fill="#ff5f57"/>
<circle cx="40" cy="18" r="5.5" fill="#febc2e"/>
<circle cx="60" cy="18" r="5.5" fill="#28c840"/>
<text x="312.5" y="22" text-anchor="middle" fill="#8b949e" font-size="12">reins watch — the fleet cockpit</text>
<text y="63" xml:space="preserve"><tspan x="18.0" fill="#e6edf3">$ reins watch</tspan></text>
<text y="83" xml:space="preserve"><tspan x="18.0" fill="#e6edf3" font-weight="700">reins · watch</tspan><tspan x="120.0" fill="#e6edf3">  </tspan><tspan x="135.8" fill="#39c5cf">steer-test</tspan><tspan x="214.3" fill="#8b949e">   10:02:32 · every 2s · loop≥3</tspan></text>
<text y="123" xml:space="preserve"><tspan x="18.0" fill="#e6edf3">  </tspan><tspan x="33.7" fill="#39c5cf" font-weight="700">›</tspan><tspan x="41.5" fill="#e6edf3"> </tspan><tspan x="49.4" fill="#e6edf3" font-weight="700">auth-refactor </tspan><tspan x="159.3" fill="#e6edf3"> </tspan><tspan x="167.2" fill="#8b949e">a2cbbe90</tspan><tspan x="229.9" fill="#e6edf3">  </tspan><tspan x="245.6" fill="#d29922">● active   </tspan><tspan x="332.0" fill="#e6edf3">  </tspan><tspan x="347.7" fill="#8b949e">5 calls · 5s ago</tspan><tspan x="473.3" fill="#e6edf3">   </tspan><tspan x="496.8" fill="#bc8cff">✎ steer queued</tspan></text>
<text y="143" xml:space="preserve"><tspan x="18.0" fill="#e6edf3">      </tspan><tspan x="65.1" fill="#3fb950">▶</tspan><tspan x="72.9" fill="#e6edf3"> </tspan><tspan x="80.8" fill="#8b949e">Bash    </tspan><tspan x="143.6" fill="#e6edf3"> npm test</tspan></text>
<text y="163" xml:space="preserve"><tspan x="18.0" fill="#e6edf3">      </tspan><tspan x="65.1" fill="#3fb950">✏</tspan><tspan x="72.9" fill="#e6edf3"> </tspan><tspan x="80.8" fill="#8b949e">Edit    </tspan><tspan x="143.6" fill="#e6edf3"> src/auth/refresh.ts</tspan></text>
<text y="183" xml:space="preserve"><tspan x="18.0" fill="#e6edf3">      </tspan><tspan x="65.1" fill="#3fb950">▶</tspan><tspan x="72.9" fill="#e6edf3"> </tspan><tspan x="80.8" fill="#8b949e">Bash    </tspan><tspan x="143.6" fill="#e6edf3"> npm test</tspan></text>
<text y="203" xml:space="preserve"><tspan x="18.0" fill="#e6edf3">  </tspan><tspan x="33.7" fill="#8b949e">────────────────────────────────────────────────────────────────</tspan></text>
<text y="223" xml:space="preserve"><tspan x="18.0" fill="#e6edf3">    </tspan><tspan x="49.4" fill="#39c5cf">payments-agent</tspan><tspan x="159.3" fill="#e6edf3"> </tspan><tspan x="167.2" fill="#8b949e">b0be190a</tspan><tspan x="229.9" fill="#e6edf3">  </tspan><tspan x="245.6" fill="#ff7b72">⟳ looping  </tspan><tspan x="332.0" fill="#e6edf3">  </tspan><tspan x="347.7" fill="#8b949e">3 calls · 7s ago</tspan><tspan x="473.3" fill="#e6edf3">   </tspan><tspan x="496.8" fill="#bc8cff">✎ steer queued</tspan></text>
<text y="243" xml:space="preserve"><tspan x="18.0" fill="#e6edf3">      </tspan><tspan x="65.1" fill="#d29922">✗</tspan><tspan x="72.9" fill="#e6edf3"> </tspan><tspan x="80.8" fill="#8b949e">Bash    </tspan><tspan x="143.6" fill="#e6edf3"> npm run build</tspan><tspan x="253.5" fill="#d29922"> ⟳</tspan></text>
<text y="263" xml:space="preserve"><tspan x="18.0" fill="#e6edf3">      </tspan><tspan x="65.1" fill="#d29922">✗</tspan><tspan x="72.9" fill="#e6edf3"> </tspan><tspan x="80.8" fill="#8b949e">Bash    </tspan><tspan x="143.6" fill="#e6edf3"> npm run build</tspan><tspan x="253.5" fill="#d29922"> ⟳</tspan></text>
<text y="283" xml:space="preserve"><tspan x="18.0" fill="#e6edf3">      </tspan><tspan x="65.1" fill="#d29922">✗</tspan><tspan x="72.9" fill="#e6edf3"> </tspan><tspan x="80.8" fill="#8b949e">Bash    </tspan><tspan x="143.6" fill="#e6edf3"> npm run build</tspan><tspan x="253.5" fill="#d29922"> ⟳</tspan></text>
<text y="303" xml:space="preserve"><tspan x="18.0" fill="#e6edf3">  </tspan><tspan x="33.7" fill="#8b949e">────────────────────────────────────────────────────────────────</tspan></text>
<text y="323" xml:space="preserve"><tspan x="18.0" fill="#e6edf3">    </tspan><tspan x="49.4" fill="#39c5cf">keen-jay      </tspan><tspan x="159.3" fill="#e6edf3"> </tspan><tspan x="167.2" fill="#8b949e">cc457ae1</tspan><tspan x="229.9" fill="#e6edf3">  </tspan><tspan x="245.6" fill="#3fb950">completed  </tspan><tspan x="332.0" fill="#e6edf3">  </tspan><tspan x="347.7" fill="#8b949e">2 calls · 9m ago</tspan></text>
<text y="343" xml:space="preserve"><tspan x="18.0" fill="#e6edf3">      </tspan><tspan x="65.1" fill="#3fb950">·</tspan><tspan x="72.9" fill="#e6edf3"> </tspan><tspan x="80.8" fill="#8b949e">Read    </tspan><tspan x="143.6" fill="#e6edf3"> docs/api.md</tspan></text>
<text y="363" xml:space="preserve"><tspan x="18.0" fill="#e6edf3">      </tspan><tspan x="65.1" fill="#3fb950">✏</tspan><tspan x="72.9" fill="#e6edf3"> </tspan><tspan x="80.8" fill="#8b949e">Edit    </tspan><tspan x="143.6" fill="#e6edf3"> README.md</tspan></text>
</svg>
